<?xml version="1.0" encoding="utf-8"?>
<!-- Generator: Adobe Illustrator 24.0.1, SVG Export Plug-In . SVG Version: 6.00 Build 0)  -->
<svg version="1.1" id="Layer_1" xmlns="http://www.w3.org/2000/svg" xmlns:xlink="http://www.w3.org/1999/xlink" x="0px" y="0px"
	 viewBox="0 0 351.5 204.1" style="enable-background:new 0 0 351.5 204.1;" xml:space="preserve">
<style type="text/css">
	.st0{fill:#FFFFFF;}
</style>
<g>
	<g>
		<path d="M95.9,124.2c-5.4,5.8-12,10.2-19.8,13.1c-7.8,2.9-16.3,4.4-25.6,4.4c-15.9,0-28.2-4.9-37-14.7C4.8,117.2,0.3,102.9,0,84.2
			V59.3c0-19,4.2-33.7,12.5-43.9C20.8,5.1,32.9,0,48.8,0c15,0,26.3,3.7,33.9,11.1c7.6,7.4,12,19,13.2,34.8H68.8
			c-0.8-8.8-2.6-14.8-5.5-18c-2.9-3.2-7.5-4.8-13.6-4.8c-7.5,0-13,2.7-16.4,8.2c-3.4,5.5-5.2,14.2-5.3,26.3v25
			c0,12.6,1.9,21.7,5.6,27.4c3.8,5.7,9.9,8.6,18.5,8.6c5.5,0,10-1.1,13.4-3.3l2.5-1.7V88.3H48.4v-21h47.5V124.2z"/>
		<path d="M152,1.9l26.1,99.8l26-99.8h36.4v138h-28v-37.3L215,45l-27.6,94.9h-19L140.9,45l2.6,57.5v37.3h-27.9V1.9H152z"/>
		<path d="M262.8,139.9V1.9h42.6c14.4,0,25.4,3.2,32.8,9.6c7.5,6.4,11.2,15.8,11.2,28.2c0,7-1.5,13-4.6,18.1
			c-3.1,5.1-7.3,8.8-12.7,11.1c6.2,1.8,11,5.3,14.3,10.7c3.3,5.3,5,11.9,5,19.8c0,13.4-3.7,23.5-11,30.3c-7.4,6.8-18,10.2-32,10.2
			H262.8z M290.7,59.6h14.5c10.9,0,16.4-5.7,16.4-17c0-6.3-1.3-10.7-3.8-13.5c-2.5-2.7-6.6-4.1-12.3-4.1h-14.8V59.6z M290.7,79.9
			v36.9h17.8c5,0,8.8-1.5,11.4-4.6c2.6-3.1,3.9-7.5,3.9-13.2c0-12.4-4.5-18.7-13.5-19H290.7z"/>
	</g>
	<g>
		<path d="M24.2,198.9l-0.8,1c-2.4,2.7-5.8,4.1-10.3,4.1c-4,0-7.2-1.3-9.5-4s-3.5-6.4-3.5-11.3v-7.3c0-5.2,1-9.1,3.1-11.7
			c2.1-2.6,5.2-3.9,9.4-3.9c3.5,0,6.3,1,8.3,3c2,2,3.1,4.8,3.3,8.4h-4.7c-0.2-2.3-0.8-4.1-1.9-5.4c-1.1-1.3-2.8-2-5-2
			c-2.7,0-4.6,0.9-5.9,2.6s-1.9,4.5-1.9,8.4v7.6c0,3.7,0.7,6.6,2.1,8.6c1.4,2,3.5,3,6.2,3c2.5,0,4.4-0.6,5.7-1.8l0.7-0.6V189h-6.8
			v-4h11.5V198.9z"/>
		<path d="M36.1,203.6h-4.5v-39.2h4.5V203.6z"/>
		<path d="M42.2,188.5c0-4,1-7.2,2.9-9.5s4.5-3.5,7.7-3.5s5.8,1.1,7.7,3.4c2,2.3,3,5.4,3,9.3v2.9c0,4-1,7.2-2.9,9.5
			c-1.9,2.3-4.5,3.5-7.8,3.5c-3.2,0-5.8-1.1-7.7-3.4c-1.9-2.3-2.9-5.3-3-9.2V188.5z M46.7,191.1c0,2.8,0.6,5.1,1.7,6.7
			c1.1,1.6,2.6,2.4,4.5,2.4c4,0,6-2.9,6.2-8.6v-3.1c0-2.8-0.6-5.1-1.7-6.7c-1.1-1.6-2.6-2.5-4.5-2.5c-1.9,0-3.3,0.8-4.5,2.5
			c-1.1,1.6-1.7,3.9-1.7,6.7V191.1z"/>
		<path d="M89.5,191.1c0,4.3-0.8,7.6-2.3,9.7c-1.6,2.2-3.8,3.3-6.7,3.3c-2.9,0-5.1-1.3-6.6-3.8l-0.2,3.3h-4.1v-39.2h4.5V179
			c1.5-2.4,3.6-3.6,6.4-3.6c3,0,5.3,1.1,6.8,3.2c1.5,2.1,2.3,5.4,2.3,9.7V191.1z M85,188.5c0-3.3-0.5-5.6-1.4-7
			c-0.9-1.4-2.4-2.1-4.4-2.1c-2.3,0-4.1,1.3-5.2,3.8v13.1c1.1,2.5,2.9,3.7,5.3,3.7c2,0,3.5-0.7,4.4-2.1c0.9-1.4,1.3-3.6,1.4-6.7
			V188.5z"/>
		<path d="M109.5,203.6c-0.3-0.6-0.5-1.6-0.6-3c-1.6,2.4-3.6,3.5-6.1,3.5c-2.5,0-4.5-0.7-5.9-2.1s-2.1-3.4-2.1-5.9
			c0-2.8,1-5,2.9-6.7c1.9-1.7,4.5-2.5,7.8-2.5h3.3v-2.9c0-1.7-0.4-2.8-1.1-3.5s-1.8-1-3.3-1c-1.4,0-2.5,0.4-3.3,1.2
			c-0.9,0.8-1.3,1.8-1.3,3.1h-4.5c0-1.4,0.4-2.8,1.3-4c0.8-1.3,2-2.3,3.4-3c1.4-0.7,3-1.1,4.7-1.1c2.8,0,5,0.7,6.5,2.1
			c1.5,1.4,2.2,3.5,2.3,6.1v13.9c0,2.1,0.3,4,0.9,5.5v0.4H109.5z M103.4,200c1.1,0,2.2-0.3,3.2-0.9s1.7-1.4,2.2-2.3v-6.6h-2.6
			c-2.1,0-3.8,0.5-5.1,1.4c-1.2,0.9-1.9,2.2-1.9,3.9c0,1.6,0.3,2.7,0.9,3.4C100.9,199.6,101.9,200,103.4,200z"/>
		<path d="M125.2,203.6h-4.5v-39.2h4.5V203.6z"/>
		<path d="M138.9,166.4l9.7,30.4l9.7-30.4h6v37.2h-4.7v-14.5l0.4-14.5l-9.7,29h-3.6l-9.7-28.9l0.4,14.4v14.5h-4.7v-37.2H138.9z"/>
		<path d="M185.9,201.1c-1.5,2-3.7,2.9-6.6,2.9c-2.5,0-4.4-0.9-5.7-2.6s-1.9-4.2-1.9-7.5v-18h4.5v17.7c0,4.3,1.3,6.5,3.9,6.5
			c2.7,0,4.6-1.2,5.7-3.7v-20.5h4.5v27.6H186L185.9,201.1z"/>
		<path d="M202,203.6h-4.5v-39.2h4.5V203.6z"/>
		<path d="M215,169.2v6.7h4.2v3.7H215v17.2c0,1.1,0.2,1.9,0.5,2.5c0.4,0.6,1,0.8,1.8,0.8c0.6,0,1.2-0.1,1.8-0.3l-0.1,3.8
			c-1,0.3-2.1,0.5-3.1,0.5c-1.8,0-3.2-0.6-4.1-1.9s-1.4-3.1-1.4-5.4v-17.2h-4.2v-3.7h4.2v-6.7H215z"/>
		<path d="M229.8,168.6c0,0.8-0.2,1.4-0.6,1.9c-0.4,0.5-1.1,0.8-1.9,0.8c-0.9,0-1.5-0.3-1.9-0.8c-0.4-0.5-0.6-1.1-0.6-1.9
			s0.2-1.4,0.6-1.9s1.1-0.8,1.9-0.8s1.5,0.3,1.9,0.8C229.5,167.2,229.8,167.8,229.8,168.6z M229.4,203.6h-4.5v-27.6h4.5V203.6z"/>
		<path d="M237.1,203.6v-37.2h10.6c3.4,0,5.9,0.8,7.7,2.5s2.6,4.1,2.6,7.4c0,1.7-0.4,3.3-1.3,4.6c-0.9,1.3-2,2.4-3.5,3.1
			c1.7,0.5,3.1,1.6,4,3.1c1,1.6,1.5,3.5,1.5,5.7c0,3.3-0.9,6-2.7,7.9s-4.4,2.9-7.8,2.9H237.1z M241.8,182.2h6c1.6,0,2.9-0.5,3.9-1.6
			s1.5-2.5,1.5-4.4c0-2-0.5-3.5-1.4-4.5c-0.9-0.9-2.3-1.4-4.1-1.4h-5.9V182.2z M241.8,186.2v13.4h6.4c1.8,0,3.2-0.6,4.2-1.8
			c1-1.2,1.6-2.8,1.6-4.9c0-4.5-1.9-6.7-5.7-6.7H241.8z"/>
		<path d="M276.5,180.2c-0.6-0.1-1.3-0.2-2-0.2c-2.3,0-3.9,1.3-4.9,3.8v19.8H265v-27.6h4.4l0.1,2.8c1.2-2.2,2.9-3.3,5.1-3.3
			c0.7,0,1.3,0.1,1.8,0.4L276.5,180.2z"/>
		<path d="M294.2,203.6c-0.3-0.6-0.5-1.6-0.6-3c-1.6,2.4-3.6,3.5-6.1,3.5c-2.5,0-4.5-0.7-5.9-2.1s-2.1-3.4-2.1-5.9
			c0-2.8,1-5,2.9-6.7c1.9-1.7,4.5-2.5,7.8-2.5h3.3v-2.9c0-1.7-0.4-2.8-1.1-3.5s-1.8-1-3.3-1c-1.4,0-2.5,0.4-3.3,1.2
			c-0.9,0.8-1.3,1.8-1.3,3.1h-4.5c0-1.4,0.4-2.8,1.3-4c0.8-1.3,2-2.3,3.4-3c1.4-0.7,3-1.1,4.7-1.1c2.8,0,5,0.7,6.5,2.1
			c1.5,1.4,2.2,3.5,2.3,6.1v13.9c0,2.1,0.3,4,0.9,5.5v0.4H294.2z M288.1,200c1.1,0,2.2-0.3,3.2-0.9s1.7-1.4,2.2-2.3v-6.6H291
			c-2.1,0-3.8,0.5-5.1,1.4c-1.2,0.9-1.9,2.2-1.9,3.9c0,1.6,0.3,2.7,0.9,3.4C285.6,199.6,286.6,200,288.1,200z"/>
		<path d="M309.3,175.9l0.1,3c1.8-2.3,4-3.5,6.7-3.5c4.9,0,7.4,3.3,7.4,9.8v18.4h-4.5v-18.2c0-2.2-0.4-3.7-1.1-4.6
			c-0.7-0.9-1.8-1.4-3.3-1.4c-1.1,0-2.1,0.4-3,1.1c-0.9,0.8-1.6,1.7-2.2,2.9v20.1H305v-27.6H309.3z"/>
		<path d="M329.4,188.5c0-4.3,0.8-7.5,2.4-9.7c1.6-2.2,3.9-3.3,6.9-3.3c2.6,0,4.7,1.1,6.2,3.2v-14.3h4.5v39.2h-4.1l-0.2-3
			c-1.5,2.3-3.6,3.5-6.4,3.5c-2.9,0-5.1-1.1-6.7-3.3s-2.5-5.4-2.5-9.4V188.5z M333.9,191c0,3.1,0.5,5.4,1.4,6.8s2.4,2.2,4.5,2.2
			c2.2,0,3.9-1.1,5-3.4v-13.9c-1.2-2.2-2.8-3.3-5-3.3c-2.1,0-3.6,0.7-4.5,2.2c-0.9,1.5-1.4,3.7-1.4,6.7V191z"/>
	</g>
</g>
<g>
	<text transform="matrix(1 0 0 1 -809.6837 215.4552)" style="font-family:'RobotoCondensed-Bold'; font-size:194.0892px;">GMB</text>
	<text transform="matrix(1 0 0 1 -803.7911 279.132)" style="font-family:'RobotoCondensed-Regular'; font-size:52.3237px;">GlobalMultiBrand</text>
</g>
<g>
	<g>
		<path class="st0" d="M739.5,124.2c-5.4,5.8-12,10.2-19.8,13.1c-7.8,2.9-16.3,4.4-25.6,4.4c-15.9,0-28.2-4.9-37-14.7
			c-8.8-9.8-13.3-24.1-13.6-42.9V59.3c0-19,4.2-33.7,12.5-43.9C664.4,5.1,676.5,0,692.4,0c15,0,26.3,3.7,33.9,11.1
			c7.6,7.4,12,19,13.2,34.8h-27.1c-0.8-8.8-2.6-14.8-5.5-18c-2.9-3.2-7.5-4.8-13.6-4.8c-7.5,0-13,2.7-16.4,8.2
			c-3.4,5.5-5.2,14.2-5.3,26.3v25c0,12.6,1.9,21.7,5.6,27.4c3.8,5.7,9.9,8.6,18.5,8.6c5.5,0,10-1.1,13.4-3.3l2.5-1.7V88.3H692v-21
			h47.5V124.2z"/>
		<path class="st0" d="M795.6,1.9l26.1,99.8l26-99.8h36.4v138h-28v-37.3l2.6-57.5l-27.6,94.9h-19L784.5,45l2.6,57.5v37.3h-27.9V1.9
			H795.6z"/>
		<path class="st0" d="M906.4,139.9V1.9h42.6c14.4,0,25.4,3.2,32.8,9.6c7.5,6.4,11.2,15.8,11.2,28.2c0,7-1.5,13-4.6,18.1
			c-3.1,5.1-7.3,8.8-12.7,11.1c6.2,1.8,11,5.3,14.3,10.7c3.3,5.3,5,11.9,5,19.8c0,13.4-3.7,23.5-11,30.3c-7.4,6.8-18,10.2-32,10.2
			H906.4z M934.3,59.6h14.5c10.9,0,16.4-5.7,16.4-17c0-6.3-1.3-10.7-3.8-13.5c-2.5-2.7-6.6-4.1-12.3-4.1h-14.8V59.6z M934.3,79.9
			v36.9h17.8c5,0,8.8-1.5,11.4-4.6c2.6-3.1,3.9-7.5,3.9-13.2c0-12.4-4.5-18.7-13.5-19H934.3z"/>
	</g>
	<g>
		<path class="st0" d="M667.8,198.9l-0.8,1c-2.4,2.7-5.8,4.1-10.3,4.1c-4,0-7.2-1.3-9.5-4s-3.5-6.4-3.5-11.3v-7.3
			c0-5.2,1-9.1,3.1-11.7c2.1-2.6,5.2-3.9,9.4-3.9c3.5,0,6.3,1,8.3,3c2,2,3.1,4.8,3.3,8.4h-4.7c-0.2-2.3-0.8-4.1-1.9-5.4
			c-1.1-1.3-2.8-2-5-2c-2.7,0-4.6,0.9-5.9,2.6s-1.9,4.5-1.9,8.4v7.6c0,3.7,0.7,6.6,2.1,8.6c1.4,2,3.5,3,6.2,3c2.5,0,4.4-0.6,5.7-1.8
			l0.7-0.6V189h-6.8v-4h11.5V198.9z"/>
		<path class="st0" d="M679.7,203.6h-4.5v-39.2h4.5V203.6z"/>
		<path class="st0" d="M685.8,188.5c0-4,1-7.2,2.9-9.5s4.5-3.5,7.7-3.5s5.8,1.1,7.7,3.4c2,2.3,3,5.4,3,9.3v2.9c0,4-1,7.2-2.9,9.5
			c-1.9,2.3-4.5,3.5-7.8,3.5c-3.2,0-5.8-1.1-7.7-3.4c-1.9-2.3-2.9-5.3-3-9.2V188.5z M690.4,191.1c0,2.8,0.6,5.1,1.7,6.7
			c1.1,1.6,2.6,2.4,4.5,2.4c4,0,6-2.9,6.2-8.6v-3.1c0-2.8-0.6-5.1-1.7-6.7c-1.1-1.6-2.6-2.5-4.5-2.5c-1.9,0-3.3,0.8-4.5,2.5
			c-1.1,1.6-1.7,3.9-1.7,6.7V191.1z"/>
		<path class="st0" d="M733.1,191.1c0,4.3-0.8,7.6-2.3,9.7c-1.6,2.2-3.8,3.3-6.7,3.3c-2.9,0-5.1-1.3-6.6-3.8l-0.2,3.3h-4.1v-39.2
			h4.5V179c1.5-2.4,3.6-3.6,6.4-3.6c3,0,5.3,1.1,6.8,3.2c1.5,2.1,2.3,5.4,2.3,9.7V191.1z M728.6,188.5c0-3.3-0.5-5.6-1.4-7
			c-0.9-1.4-2.4-2.1-4.4-2.1c-2.3,0-4.1,1.3-5.2,3.8v13.1c1.1,2.5,2.9,3.7,5.3,3.7c2,0,3.5-0.7,4.4-2.1c0.9-1.4,1.3-3.6,1.4-6.7
			V188.5z"/>
		<path class="st0" d="M753.1,203.6c-0.3-0.6-0.5-1.6-0.6-3c-1.6,2.4-3.6,3.5-6.1,3.5c-2.5,0-4.5-0.7-5.9-2.1s-2.1-3.4-2.1-5.9
			c0-2.8,1-5,2.9-6.7c1.9-1.7,4.5-2.5,7.8-2.5h3.3v-2.9c0-1.7-0.4-2.8-1.1-3.5s-1.8-1-3.3-1c-1.4,0-2.5,0.4-3.3,1.2
			c-0.9,0.8-1.3,1.8-1.3,3.1h-4.5c0-1.4,0.4-2.8,1.3-4c0.8-1.3,2-2.3,3.4-3c1.4-0.7,3-1.1,4.7-1.1c2.8,0,5,0.7,6.5,2.1
			c1.5,1.4,2.2,3.5,2.3,6.1v13.9c0,2.1,0.3,4,0.9,5.5v0.4H753.1z M747,200c1.1,0,2.2-0.3,3.2-0.9s1.7-1.4,2.2-2.3v-6.6h-2.6
			c-2.1,0-3.8,0.5-5.1,1.4c-1.2,0.9-1.9,2.2-1.9,3.9c0,1.6,0.3,2.7,0.9,3.4C744.5,199.6,745.6,200,747,200z"/>
		<path class="st0" d="M768.8,203.6h-4.5v-39.2h4.5V203.6z"/>
		<path class="st0" d="M782.6,166.4l9.7,30.4l9.7-30.4h6v37.2h-4.7v-14.5l0.4-14.5l-9.7,29h-3.6l-9.7-28.9l0.4,14.4v14.5h-4.7v-37.2
			H782.6z"/>
		<path class="st0" d="M829.5,201.1c-1.5,2-3.7,2.9-6.6,2.9c-2.5,0-4.4-0.9-5.7-2.6s-1.9-4.2-1.9-7.5v-18h4.5v17.7
			c0,4.3,1.3,6.5,3.9,6.5c2.7,0,4.6-1.2,5.7-3.7v-20.5h4.5v27.6h-4.3L829.5,201.1z"/>
		<path class="st0" d="M845.6,203.6h-4.5v-39.2h4.5V203.6z"/>
		<path class="st0" d="M858.6,169.2v6.7h4.2v3.7h-4.2v17.2c0,1.1,0.2,1.9,0.5,2.5c0.4,0.6,1,0.8,1.8,0.8c0.6,0,1.2-0.1,1.8-0.3
			l-0.1,3.8c-1,0.3-2.1,0.5-3.1,0.5c-1.8,0-3.2-0.6-4.1-1.9s-1.4-3.1-1.4-5.4v-17.2h-4.2v-3.7h4.2v-6.7H858.6z"/>
		<path class="st0" d="M873.4,168.6c0,0.8-0.2,1.4-0.6,1.9c-0.4,0.5-1.1,0.8-1.9,0.8c-0.9,0-1.5-0.3-1.9-0.8
			c-0.4-0.5-0.6-1.1-0.6-1.9s0.2-1.4,0.6-1.9s1.1-0.8,1.9-0.8s1.5,0.3,1.9,0.8C873.2,167.2,873.4,167.8,873.4,168.6z M873,203.6
			h-4.5v-27.6h4.5V203.6z"/>
		<path class="st0" d="M880.8,203.6v-37.2h10.6c3.4,0,5.9,0.8,7.7,2.5s2.6,4.1,2.6,7.4c0,1.7-0.4,3.3-1.3,4.6
			c-0.9,1.3-2,2.4-3.5,3.1c1.7,0.5,3.1,1.6,4,3.1c1,1.6,1.5,3.5,1.5,5.7c0,3.3-0.9,6-2.7,7.9s-4.4,2.9-7.8,2.9H880.8z M885.4,182.2
			h6c1.6,0,2.9-0.5,3.9-1.6s1.5-2.5,1.5-4.4c0-2-0.5-3.5-1.4-4.5c-0.9-0.9-2.3-1.4-4.1-1.4h-5.9V182.2z M885.4,186.2v13.4h6.4
			c1.8,0,3.2-0.6,4.2-1.8c1-1.2,1.6-2.8,1.6-4.9c0-4.5-1.9-6.7-5.7-6.7H885.4z"/>
		<path class="st0" d="M920.1,180.2c-0.6-0.1-1.3-0.2-2-0.2c-2.3,0-3.9,1.3-4.9,3.8v19.8h-4.5v-27.6h4.4l0.1,2.8
			c1.2-2.2,2.9-3.3,5.1-3.3c0.7,0,1.3,0.1,1.8,0.4L920.1,180.2z"/>
		<path class="st0" d="M937.8,203.6c-0.3-0.6-0.5-1.6-0.6-3c-1.6,2.4-3.6,3.5-6.1,3.5c-2.5,0-4.5-0.7-5.9-2.1s-2.1-3.4-2.1-5.9
			c0-2.8,1-5,2.9-6.7c1.9-1.7,4.5-2.5,7.8-2.5h3.3v-2.9c0-1.7-0.4-2.8-1.1-3.5s-1.8-1-3.3-1c-1.4,0-2.5,0.4-3.3,1.2
			c-0.9,0.8-1.3,1.8-1.3,3.1h-4.5c0-1.4,0.4-2.8,1.3-4c0.8-1.3,2-2.3,3.4-3c1.4-0.7,3-1.1,4.7-1.1c2.8,0,5,0.7,6.5,2.1
			c1.5,1.4,2.2,3.5,2.3,6.1v13.9c0,2.1,0.3,4,0.9,5.5v0.4H937.8z M931.8,200c1.1,0,2.2-0.3,3.2-0.9s1.7-1.4,2.2-2.3v-6.6h-2.6
			c-2.1,0-3.8,0.5-5.1,1.4c-1.2,0.9-1.9,2.2-1.9,3.9c0,1.6,0.3,2.7,0.9,3.4C929.2,199.6,930.3,200,931.8,200z"/>
		<path class="st0" d="M952.9,175.9l0.1,3c1.8-2.3,4-3.5,6.7-3.5c4.9,0,7.4,3.3,7.4,9.8v18.4h-4.5v-18.2c0-2.2-0.4-3.7-1.1-4.6
			c-0.7-0.9-1.8-1.4-3.3-1.4c-1.1,0-2.1,0.4-3,1.1c-0.9,0.8-1.6,1.7-2.2,2.9v20.1h-4.5v-27.6H952.9z"/>
		<path class="st0" d="M973,188.5c0-4.3,0.8-7.5,2.4-9.7c1.6-2.2,3.9-3.3,6.9-3.3c2.6,0,4.7,1.1,6.2,3.2v-14.3h4.5v39.2h-4.1l-0.2-3
			c-1.5,2.3-3.6,3.5-6.4,3.5c-2.9,0-5.1-1.1-6.7-3.3s-2.5-5.4-2.5-9.4V188.5z M977.5,191c0,3.1,0.5,5.4,1.4,6.8s2.4,2.2,4.5,2.2
			c2.2,0,3.9-1.1,5-3.4v-13.9c-1.2-2.2-2.8-3.3-5-3.3c-2.1,0-3.6,0.7-4.5,2.2c-0.9,1.5-1.4,3.7-1.4,6.7V191z"/>
	</g>
</g>
<rect x="-598.6" y="284.2" transform="matrix(6.123234e-17 -1 1 6.123234e-17 -1188.0508 304.6449)" width="313.8" height="924.3"/>
</svg>
